# xmcd
#
# Track frame offsets: 
#        165
#        14791
#        33740
#        44957
#        66420
#        88573
#        106763
#        124632
#        139183
#        152993
#        171759
#        186835
#
# Disc length: 2736 seconds
#
# Revision: 0
# Processed by: cddbd v1.4PL0 Copyright (c) Steve Scherf et al.
# Submitted via: ExactAudioCopy v0.90b3
#
DISCID=b00aae0c
DTITLE=OS TIRANOS - Brasil de Bombacha
DYEAR=1900
DGENRE=Gaúcha
TTITLE0=Rodeio Da Saudade
TTITLE1=Chamamé Sem Fronteira
TTITLE2=O Cancioneiro Das Coxilhas
TTITLE3=Brasil De Bombacha
TTITLE4=Espere Por Mim
TTITLE5=Princesa
TTITLE6=Fandangueiro De Galpão
TTITLE7=Defumando Ausências
TTITLE8=No Rincão Do Cambará
TTITLE9=Rosío Vermeio
TTITLE10=Potreiro Velho
TTITLE11=Canto Aporreado
EXTD=
EXTT0=
EXTT1=
EXTT2=
EXTT3=
EXTT4=
EXTT5=
EXTT6=
EXTT7=
EXTT8=
EXTT9=
EXTT10=
EXTT11=
PLAYORDER=
